<svg xmlns="http://www.w3.org/2000/svg" xmlns:xlink="http://www.w3.org/1999/xlink" version="1.1" id="Layer_1" viewBox="0 0 429.543 429.543" xml:space="preserve" fill="#000000"><g id="SVGRepo_bgCarrier" stroke-width="0"></g><g id="SVGRepo_tracerCarrier" stroke-linecap="round" stroke-linejoin="round"></g><g id="SVGRepo_iconCarrier"> <g> <g> <path style="fill:#00953A;" d="M405.478,218.71c0.337-2.672,0.53-5.389,0.53-8.152c0-28.077-17.909-51.963-42.923-60.882 c-8.049-21.407-28.703-36.643-52.922-36.643c-7.446,0-14.548,1.453-21.059,4.069c-6.51-2.616-13.612-4.069-21.058-4.069 c-11.52,0-22.229,3.453-31.164,9.37c-10.16-15.028-27.359-24.908-46.865-24.908c-28.641,0-52.289,21.303-56.007,48.924 c-27.751,3.601-49.191,27.309-49.191,56.042c0,1.725,0.09,3.43,0.241,5.115c-26.254,7.813-45.405,32.121-45.405,60.914 c0,35.103,28.456,63.558,63.558,63.558h0.001h262.77c35.102,0,63.559-28.455,63.559-63.558 C429.543,248.317,420.134,230.354,405.478,218.71z"></path> <path style="opacity:0.2;fill:#222222;" d="M236.883,122.403c-10.16-15.028-27.359-24.908-46.865-24.908 c-28.641,0-52.289,21.303-56.007,48.924c-27.751,3.601-49.191,27.309-49.191,56.042c0,1.725,0.09,3.43,0.241,5.115 c-26.254,7.813-45.405,32.121-45.405,60.914c0,35.103,28.456,63.558,63.558,63.558H237.6V121.947 C237.361,122.1,237.119,122.247,236.883,122.403z"></path> <g> <path style="fill:#FFFFFF;" d="M365.933,189.275c0-17.566-14.244-31.807-31.806-31.807c-17.57,0-31.81,14.241-31.81,31.807 c0,17.567,14.239,31.808,31.81,31.808C351.689,221.083,365.933,206.842,365.933,189.275z"></path> <circle style="fill:#FF9500;" cx="334.125" cy="189.275" r="10.61"></circle> <path style="opacity:0.2;fill:#222222;" d="M334.127,157.468c-17.57,0-31.81,14.241-31.81,31.807 c0,17.567,14.239,31.808,31.81,31.808V157.468z"></path> </g> <path style="opacity:0.2;fill:#222222;" d="M306.778,183.262c-3.671,0-7.276,0.276-10.805,0.791 c-13.054-21.444-36.648-35.766-63.59-35.766c-10.049,0-19.628,2.004-28.372,5.616c-13.547-14.176-32.624-23.021-53.779-23.021 c-4.164,0-8.246,0.346-12.224,1.004c-1.946,4.568-3.313,9.442-3.998,14.533c-27.751,3.601-49.191,27.309-49.191,56.042 c0,1.725,0.09,3.43,0.241,5.115c-26.254,7.813-45.405,32.121-45.405,60.914c0,35.103,28.456,63.558,63.558,63.558h203.564 c41.086,0,74.393-33.307,74.393-74.393S347.864,183.262,306.778,183.262z"></path> </g> <g> <path style="fill:#77BC1F;" d="M279.436,187.909c-3.556,0-7.049,0.268-10.467,0.766c-12.647-20.774-35.504-34.648-61.604-34.648 c-9.735,0-19.015,1.941-27.486,5.44c-13.123-13.733-31.605-22.302-52.1-22.302c-32.845,0-60.538,21.98-69.224,52.027 C25.215,195.52,0,224.797,0,259.978c0,39.803,32.266,72.069,72.069,72.069h207.366c39.803,0,72.069-32.267,72.069-72.069 C351.505,220.176,319.238,187.909,279.436,187.909z"></path> <path style="opacity:0.5;fill:#218649;" d="M127.779,137.165c-32.845,0-60.538,21.98-69.224,52.027 C25.215,195.52,0,224.797,0,259.978c0,39.803,32.266,72.069,72.069,72.069h98.906V151.586 C158.938,142.544,143.995,137.165,127.779,137.165z"></path> <g> <path style="fill:#FFFFFF;" d="M312.904,262.156c0-17.566-14.244-31.807-31.806-31.807c-17.57,0-31.81,14.241-31.81,31.807 c0,17.567,14.239,31.808,31.81,31.808C298.66,293.964,312.904,279.723,312.904,262.156z"></path> <circle style="fill:#FF9500;" cx="281.097" cy="262.156" r="10.61"></circle> <path style="opacity:0.2;fill:#222222;" d="M281.099,230.349c-17.57,0-31.81,14.241-31.81,31.807 c0,17.567,14.239,31.808,31.81,31.808V230.349z"></path> </g> <g> <path style="fill:#FFFFFF;" d="M101.616,264.191c0-17.566-14.244-31.807-31.806-31.807c-17.57,0-31.81,14.241-31.81,31.807 c0,17.567,14.239,31.808,31.81,31.808C87.372,295.999,101.616,281.758,101.616,264.191z"></path> <circle style="fill:#FF9500;" cx="69.809" cy="264.191" r="10.61"></circle> <path style="opacity:0.2;fill:#222222;" d="M69.811,232.384c-17.57,0-31.81,14.241-31.81,31.807 c0,17.567,14.239,31.808,31.81,31.808V232.384z"></path> </g> <g> <path style="fill:#FFFFFF;" d="M207.561,221.082c0-17.566-14.244-31.807-31.806-31.807c-17.57,0-31.81,14.241-31.81,31.807 c0,17.567,14.239,31.808,31.81,31.808C193.316,252.891,207.561,238.65,207.561,221.082z"></path> <circle style="fill:#FF9500;" cx="175.753" cy="221.082" r="10.61"></circle> <path style="opacity:0.2;fill:#222222;" d="M175.755,189.275c-17.57,0-31.81,14.241-31.81,31.807 c0,17.567,14.239,31.808,31.81,31.808V189.275z"></path> </g> </g> </g> </g></svg>
