<svg viewBox="0 0 1024 1024" class="icon" version="1.1" xmlns="http://www.w3.org/2000/svg" fill="#000000"><g id="SVGRepo_bgCarrier" stroke-width="0"></g><g id="SVGRepo_tracerCarrier" stroke-linecap="round" stroke-linejoin="round"></g><g id="SVGRepo_iconCarrier"><path d="M894.4 812.1h-788.2c-17.1 0-30.9-14.3-30.9-32v-208H772c76 0 139.6 59.8 146.9 138.1l6.5 69.9c-0.1 17.6-13.9 32-31 32zM695.3 572h-620l52.9-163.8c4.3-13.2 16.6-22.2 30.5-22.2h444.5c13.3 0 25.3 8.3 29.9 20.7l62.2 165.3z" fill="#F2E779"></path><path d="M953.3 812.1l-7.2-57.7c-4-32.1-31.3-56.3-63.5-56.3H767.2c-26.5 0-50.6 16.8-59.9 41.7l-27 72.3h273z" fill="#F9EBCD"></path><path d="M920.3 812.1h-206l22.2-59.2c4.7-12.5 16.6-20.8 30-20.8h115.6c16.1 0 29.8 12 31.8 28l6.4 52z" fill="#F4CD9D"></path><path d="M920.3 820.1h-206c-2.6 0-5.1-1.3-6.6-3.4-1.5-2.2-1.8-4.9-0.9-7.4L729 750c5.8-15.5 20.9-26 37.5-26h115.6c20.1 0 37.2 15.1 39.7 35l6.5 52c0.3 2.3-0.4 4.6-1.9 6.3-1.6 1.8-3.8 2.8-6.1 2.8z m-194.5-16h185.4l-5.4-43c-1.5-12-11.7-21-23.8-21H766.5c-9.9 0-19 6.3-22.5 15.6l-18.2 48.4z" fill="#9A2D2F"></path><path d="M817.3 841.1m-80 0a80 80 0 1 0 160 0 80 80 0 1 0-160 0Z" fill="#DAE5FF"></path><path d="M124.3 812.1l7.2-57.7c4-32.1 31.3-56.3 63.5-56.3h115.5c26.5 0 50.6 16.8 59.9 41.7l27 72.3h-273.1z" fill="#F9EBCD"></path><path d="M157.3 812.1h206l-22.2-59.2c-4.7-12.5-16.6-20.8-30-20.8h-115.5c-16.1 0-29.8 12-31.8 28l-6.5 52z" fill="#F4CD9D"></path><path d="M363.3 820.1h-206c-2.3 0-4.5-1-6-2.7-1.5-1.7-2.2-4-1.9-6.3l6.5-52c2.5-20 19.6-35 39.7-35h115.6c16.6 0 31.6 10.4 37.5 26l22.2 59.2c0.9 2.5 0.6 5.2-0.9 7.4-1.6 2.1-4.1 3.4-6.7 3.4z m-196.9-16h185.4l-18.2-48.4c-3.5-9.3-12.5-15.6-22.5-15.6h-115.5c-12.1 0-22.3 9-23.8 21l-5.4 43z" fill="#9A2D2F"></path><path d="M260.3 841.1m-80 0a80 80 0 1 0 160 0 80 80 0 1 0-160 0Z" fill="#DAE5FF"></path><path d="M796.2 641.1h-649.9c-4.4 0-8-3.6-8-8s3.6-8 8-8h649.8c4.4 0 8 3.6 8 8s-3.5 8-7.9 8z" fill="#9A2D2F"></path><path d="M874.8 617.1h-22.5c-8.8 0-16 7.2-16 16s7.2 16 16 16h46.9c-6.7-11.8-14.9-22.5-24.4-32z" fill="#FFF5DC"></path><path d="M364.3 536.1h-210c-11 0-18.7-10.8-15.2-21.1l25.5-75.1c4.4-13 16.6-21.7 30.3-21.7h169.3c8.8 0 16 7.2 16 16v86c0.1 8.7-7.1 15.9-15.9 15.9z" fill="#DAE5FF"></path><path d="M364.3 544.1h-210c-7.7 0-15-3.7-19.5-10-4.6-6.4-5.7-14.3-3.2-21.7l25.5-75.1c5.5-16.2 20.8-27.2 37.9-27.2h169.3c13.2 0 24 10.8 24 24v86c0 13.2-10.8 24-24 24z m-169.3-118c-10.3 0-19.5 6.5-22.8 16.3l-25.5 75.1c-0.8 2.5-0.4 5.1 1.1 7.2 1.5 2.1 3.9 3.3 6.5 3.3h209.9c4.4 0 8-3.6 8-8v-86c0-4.4-3.6-8-8-8l-169.2 0.1z" fill="#9A2D2F"></path><path d="M610.3 536.1h-159c-8.9 0-16-7.2-16-16v-86c0-8.8 7.2-16 16-16h118.2c13.7 0 25.9 8.7 30.4 21.7l25.5 75.1c3.6 10.4-4.2 21.2-15.1 21.2z" fill="#DAE5FF"></path><path d="M610.3 544.1h-159c-13.2 0-24-10.8-24-24v-86c0-13.2 10.8-24 24-24h118.2c17.2 0 32.4 10.9 37.9 27.2l25.5 75.1c2.5 7.4 1.3 15.3-3.2 21.7-4.4 6.2-11.7 10-19.4 10z m-159-118c-4.4 0-8 3.6-8 8v86c0 4.4 3.6 8 8 8h158.9c2.6 0 5-1.2 6.5-3.4 1.5-2.1 1.9-4.7 1.1-7.2l-25.5-75.1c-3.3-9.7-12.5-16.3-22.8-16.3H451.3z" fill="#9A2D2F"></path><path d="M261.3 842.1m-50 0a50 50 0 1 0 100 0 50 50 0 1 0-100 0Z" fill="#FFFFFF"></path><path d="M261.3 900.1c-32 0-58-26-58-58s26-58 58-58 58 26 58 58-26 58-58 58z m0-100c-23.2 0-42 18.8-42 42s18.8 42 42 42 42-18.8 42-42-18.8-42-42-42z" fill="#9A2D2F"></path><path d="M817.3 842.1m-50 0a50 50 0 1 0 100 0 50 50 0 1 0-100 0Z" fill="#FFFFFF"></path><path d="M817.3 900.1c-32 0-58-26-58-58s26-58 58-58 58 26 58 58-26 58-58 58z m0-100c-23.2 0-42 18.8-42 42s18.8 42 42 42 42-18.8 42-42-18.8-42-42-42zM76.3 212.9c5 0 7.5 3 12.7 10.2 5.1 7.2 12 17 25.7 17s20.7-9.8 25.7-17c5.1-7.3 7.7-10.2 12.7-10.2s7.5 3 12.7 10.2c5.1 7.2 12 17 25.7 17 13.8 0 20.7-9.8 25.7-17 5.1-7.3 7.7-10.2 12.7-10.2s7.5 3 12.7 10.2c5.1 7.2 12 17 25.7 17 4.4 0 8-3.6 8-8s-3.6-8-8-8c-5 0-7.5-3-12.7-10.2-5.1-7.2-12-17-25.7-17s-20.7 9.8-25.7 17c-5.1 7.3-7.7 10.2-12.7 10.2s-7.5-3-12.7-10.2c-5.1-7.2-12-17-25.7-17s-20.7 9.8-25.7 17c-5.1 7.3-7.7 10.2-12.7 10.2s-7.5-3-12.7-10.2c-5.1-7.2-12-17-25.7-17-4.4 0-8 3.6-8 8s3.6 8 8 8zM76.3 262.9c5 0 7.5 3 12.7 10.2 5.1 7.2 12 17 25.7 17s20.7-9.8 25.7-17c5.1-7.3 7.7-10.2 12.7-10.2s7.5 3 12.7 10.2c5.1 7.2 12 17 25.7 17 13.8 0 20.7-9.8 25.7-17 5.1-7.3 7.7-10.2 12.7-10.2s7.5 3 12.7 10.2c5.1 7.2 12 17 25.7 17 4.4 0 8-3.6 8-8s-3.6-8-8-8c-5 0-7.5-3-12.7-10.2-5.1-7.2-12-17-25.7-17s-20.7 9.8-25.7 17c-5.1 7.3-7.7 10.2-12.7 10.2s-7.5-3-12.7-10.2c-5.1-7.2-12-17-25.7-17s-20.7 9.8-25.7 17c-5.1 7.3-7.7 10.2-12.7 10.2s-7.5-3-12.7-10.2c-5.1-7.2-12-17-25.7-17-4.4 0-8 3.6-8 8 0 4.5 3.6 8 8 8zM758.3 468.4c5 0 7.5 3 12.7 10.2 5.1 7.2 12 17 25.7 17s20.7-9.8 25.7-17c5.1-7.3 7.7-10.2 12.7-10.2s7.5 3 12.7 10.2c5.1 7.2 12 17 25.7 17 13.8 0 20.7-9.8 25.7-17 5.1-7.3 7.7-10.2 12.7-10.2s7.5 3 12.7 10.2c5.1 7.2 12 17 25.7 17 4.4 0 8-3.6 8-8s-3.6-8-8-8c-5 0-7.5-3-12.7-10.2-5.1-7.2-12-17-25.7-17s-20.7 9.8-25.7 17c-5.1 7.3-7.7 10.2-12.7 10.2s-7.5-3-12.7-10.2c-5.1-7.2-12-17-25.7-17s-20.7 9.8-25.7 17c-5.1 7.3-7.7 10.2-12.7 10.2s-7.5-3-12.7-10.2c-5.1-7.2-12-17-25.7-17-4.4 0-8 3.6-8 8s3.6 8 8 8zM758.3 518.4c5 0 7.5 3 12.7 10.2 5.1 7.2 12 17 25.7 17s20.7-9.8 25.7-17c5.1-7.3 7.7-10.2 12.7-10.2s7.5 3 12.7 10.2c5.1 7.2 12 17 25.7 17 13.8 0 20.7-9.8 25.7-17 5.1-7.3 7.7-10.2 12.7-10.2s7.5 3 12.7 10.2c5.1 7.2 12 17 25.7 17 4.4 0 8-3.6 8-8s-3.6-8-8-8c-5 0-7.5-3-12.7-10.2-5.1-7.2-12-17-25.7-17s-20.7 9.8-25.7 17c-5.1 7.3-7.7 10.2-12.7 10.2s-7.5-3-12.7-10.2c-5.1-7.2-12-17-25.7-17s-20.7 9.8-25.7 17c-5.1 7.3-7.7 10.2-12.7 10.2s-7.5-3-12.7-10.2c-5.1-7.2-12-17-25.7-17-4.4 0-8 3.6-8 8s3.6 8 8 8z" fill="#9A2D2F"></path><path d="M349.1 104.1m-32 0a32 32 0 1 0 64 0 32 32 0 1 0-64 0Z" fill="#FFEB4D"></path><path d="M349.1 144.1c-22.1 0-40-17.9-40-40s17.9-40 40-40 40 17.9 40 40-18 40-40 40z m0-64c-13.2 0-24 10.8-24 24s10.8 24 24 24 24-10.8 24-24-10.8-24-24-24z" fill="#9A2D2F"></path><path d="M961.2 811.1l-7.2-57.7c-2.5-19.9-12.9-37-27.8-48.4-4.6-38.1-22.1-73.1-49.7-99-28.7-27-65.9-41.9-104.7-41.9h-71.1L640.4 404c-5.8-15.5-20.9-25.9-37.4-25.9h-444.4c-17.4 0-32.7 11.1-38.1 27.7l-52.8 163.8c-0.2 0.5-0.2 0.9-0.3 1.4v209c0 22.1 17.5 40 38.9 40h68.6c-1.7 6.7-2.5 13.8-2.5 21 0 30.4 15.5 57.2 38.9 73h-108c-4.4 0-8 3.6-8 8s3.6 8 8 8h824c4.4 0 8-3.6 8-8s-3.6-8-8-8h-60.9c23.5-15.8 38.9-42.6 38.9-73 0-7.2-0.9-14.3-2.5-21h50.5c2.3 0 4.5-1 6-2.7s2.2-3.9 1.9-6.2z m-76.6-170h-32.3c-4.4 0-8-3.6-8-8s3.6-8 8-8h19.1c4.8 5 9.2 10.3 13.2 16z m-748.8-230.5c3.2-9.9 12.4-16.6 22.8-16.6h444.5c9.9 0 19 6.2 22.5 15.5l58.1 154.5h-597.4l49.5-153.4z m-12.2 342.8l-6.3 50.7h-11c-12.6 0-22.9-10.8-22.9-24v-200H772c30.4 0 59.7 10.2 83.8 29h-3.4c-13.2 0-24 10.8-24 24s10.8 24 24 24h43c6.1 11.9 10.5 24.6 13.2 37.8-8-3.1-16.8-4.8-25.8-4.8H767.2c-29.8 0-56.9 18.9-67.4 46.9l-25 67.1H402.9l-25-67.1c-10.5-28.1-37.6-46.9-67.4-46.9H195c-36.3 0-67 27.2-71.4 63.3z m9.8 50.7l6.1-48.7c3.5-28.1 27.4-49.3 55.5-49.3h115.5c23.2 0 44.2 14.7 52.4 36.5l22.9 61.5h-45.6c-14-30.1-44.5-51-79.8-51s-65.8 20.9-79.8 51h-47.2z m54.9 37c0-39.7 32.3-72 72-72s72 32.3 72 72-32.3 72-72 72-72-32.3-72-72z m121.1 73c23.5-15.8 38.9-42.6 38.9-73 0-7.2-0.9-14.3-2.5-21h386c-1.7 6.7-2.5 13.8-2.5 21 0 30.4 15.5 57.2 38.9 73H309.4z m507.9-1c-39.7 0-72-32.3-72-72s32.3-72 72-72 72 32.3 72 72-32.3 72-72 72z m79.8-109c-14-30.1-44.5-51-79.8-51s-65.8 20.9-79.8 51h-45.6l22.9-61.5c8.1-21.8 29.2-36.5 52.4-36.5h115.5c10.3 0 20.7 2 28.5 7.9 4.8 3.6 12.7 8.9 17.6 16.5 4.7 7.4 8.3 15.7 9.5 24.9l6.1 48.7h-47.3z" fill="#9A2D2F"></path><path d="M601.4 425.8c9.6 0.5 19.9 0.9 30.7 1.2l-6.5-17.4c-3.5-9.3-12.5-15.5-22.5-15.5h-444.5c-6.1 0-11.8 2.3-16.1 6.2 3.8 8 11.9 15.5 23.9 21.9 7.4-7.5 17.6-12 28.6-12h169.3c8.3 0 15.6 4.2 19.9 10.6 20-5.8 35.5-11.2 51.1-13.6 13.6-2 27.8-0.2 46.2 3h88a39.7 39.7 0 0 1 31.9 15.6zM272.8 439.1c39.2-2 68.2-7.2 91.4-13H195c-4.2 0-8.3 1.1-11.8 3.1 22.2 7.5 52.5 11.7 89.6 9.9z" fill="#FFFFFF"></path></g></svg>
