<svg viewBox="0 0 1024 1024" class="icon" version="1.1" xmlns="http://www.w3.org/2000/svg" fill="#000000"><g id="SVGRepo_bgCarrier" stroke-width="0"></g><g id="SVGRepo_tracerCarrier" stroke-linecap="round" stroke-linejoin="round"></g><g id="SVGRepo_iconCarrier"><path d="M248.685714 435.931429h533.942857c90.697143 0 163.84 73.142857 163.84 163.84v163.84h-863.085714V601.234286c0-90.697143 74.605714-165.302857 165.302857-165.302857z" fill="#64B829"></path><path d="M956.708571 775.314286H73.142857V601.234286c0-96.548571 78.994286-174.08 174.08-174.08h533.942857c96.548571 0 174.08 78.994286 174.08 174.08V775.314286z m-863.085714-20.48H936.228571V601.234286c0-84.845714-68.754286-153.6-153.6-153.6H248.685714c-84.845714 0-153.6 68.754286-153.6 153.6v153.6z" fill="#141515"></path><path d="M430.08 765.074286H83.382857v-100.937143c23.405714-76.068571 90.697143-130.194286 169.691429-130.194286 99.474286 0 179.931429 84.845714 179.931428 190.171429 1.462857 14.628571 0 27.794286-2.925714 40.96z" fill="#B2D577"></path><path d="M438.857143 775.314286H73.142857v-114.102857c26.331429-81.92 98.011429-137.508571 179.931429-137.508572 105.325714 0 190.171429 90.697143 190.171428 201.874286 0 14.628571-1.462857 27.794286-4.388571 42.422857v7.314286zM93.622857 754.834286h326.217143c1.462857-10.24 2.925714-20.48 2.925714-29.257143 0-99.474286-76.068571-179.931429-169.691428-179.931429-71.68 0-136.045714 48.274286-159.451429 121.417143v87.771429z" fill="#141515"></path><path d="M946.468571 626.102857v138.971429H596.845714c-2.925714-13.165714-4.388571-26.331429-4.388571-39.497143C592.457143 614.4 677.302857 526.628571 781.165714 526.628571c71.68 0 131.657143 39.497143 165.302857 99.474286z" fill="#B2D577"></path><path d="M956.708571 775.314286H588.068571l-1.462857-8.777143c-2.925714-13.165714-4.388571-27.794286-4.388571-42.422857 0-115.565714 89.234286-209.188571 198.948571-209.188572 71.68 0 137.508571 40.96 174.08 105.325715l1.462857 2.925714V775.314286z m-351.085714-20.48H936.228571V629.028571c-32.182857-57.051429-90.697143-92.16-153.6-92.16-98.011429 0-178.468571 84.845714-178.468571 188.708572-1.462857 8.777143 0 19.017143 1.462857 29.257143z" fill="#141515"></path><path d="M83.382857 693.394286h861.622857v71.68H83.382857z" fill="#97CA1B"></path><path d="M956.708571 775.314286H73.142857v-92.16h883.565714V775.314286z m-863.085714-20.48H936.228571v-51.2H93.622857v51.2z" fill="#141515"></path><path d="M490.057143 194.56c152.137143 0 285.257143 106.788571 307.2 242.834286H247.222857c-8.777143 0-17.554286 0-26.331428 1.462857 0-136.045714 117.028571-244.297143 269.165714-244.297143z" fill="#97CA1B"></path><path d="M210.651429 450.56V438.857143c0-64.365714 24.868571-125.805714 71.68-172.617143 52.662857-52.662857 127.268571-81.92 207.725714-81.92 155.062857 0 295.497143 109.714286 317.44 251.611429l1.462857 13.165714-13.165714-1.462857H247.222857c-8.777143 0-16.091429 0-24.868571 1.462857l-11.702857 1.462857zM490.057143 204.8c-76.068571 0-144.822857 26.331429-193.097143 76.068571-39.497143 39.497143-62.902857 90.697143-64.365714 146.285715H785.554286C757.76 301.348571 631.954286 204.8 490.057143 204.8z" fill="#141515"></path><path d="M747.52 437.394286H263.314286c24.868571-106.788571 115.565714-184.32 229.668571-184.32 114.102857 0 215.04 77.531429 254.537143 184.32z" fill="#90CED9"></path><path d="M762.148571 447.634286h-512l2.925715-13.165715c26.331429-115.565714 122.88-191.634286 239.908571-191.634285 115.565714 0 222.354286 76.068571 264.777143 191.634285l4.388571 13.165715z m-485.668571-20.48H731.428571C690.468571 327.68 595.382857 263.314286 492.982857 263.314286s-187.245714 64.365714-216.502857 163.84z" fill="#141515"></path><path d="M469.577143 437.394286h-43.885714v-175.542857c13.165714-4.388571 27.794286-7.314286 43.885714-8.777143v184.32z" fill="#97CA1B"></path><path d="M479.817143 447.634286h-64.365714V254.537143l7.314285-1.462857c14.628571-4.388571 29.257143-7.314286 45.348572-8.777143l11.702857-1.462857v204.8z m-42.422857-20.48h21.942857v-160.914286l-21.942857 4.388571v156.525715z" fill="#141515"></path><path d="M264.777143 829.44c57.051429 0 103.862857-46.811429 103.862857-103.862857s-46.811429-103.862857-103.862857-103.862857c-57.051429 0-103.862857 46.811429-103.862857 103.862857s46.811429 103.862857 103.862857 103.862857z" fill="#A1A69C"></path><path d="M264.777143 839.68c-62.902857 0-114.102857-51.2-114.102857-114.102857s51.2-114.102857 114.102857-114.102857 114.102857 51.2 114.102857 114.102857-51.2 114.102857-114.102857 114.102857z m0-209.188571c-51.2 0-93.622857 42.422857-93.622857 93.622857 0 51.2 42.422857 93.622857 93.622857 93.622857s93.622857-42.422857 93.622857-93.622857c0-51.2-42.422857-93.622857-93.622857-93.622857z" fill="#141515"></path><path d="M264.777143 725.577143m-49.737143 0a49.737143 49.737143 0 1 0 99.474286 0 49.737143 49.737143 0 1 0-99.474286 0Z" fill="#DAD9B4"></path><path d="M264.777143 784.091429c-32.182857 0-59.977143-26.331429-59.977143-59.977143 0-32.182857 26.331429-59.977143 59.977143-59.977143 32.182857 0 59.977143 26.331429 59.977143 59.977143s-27.794286 59.977143-59.977143 59.977143z m0-98.011429c-21.942857 0-39.497143 17.554286-39.497143 39.497143 0 21.942857 17.554286 39.497143 39.497143 39.497143 21.942857 0 39.497143-17.554286 39.497143-39.497143-1.462857-21.942857-17.554286-39.497143-39.497143-39.497143z" fill="#141515"></path><path d="M773.851429 829.44c57.051429 0 103.862857-46.811429 103.862857-103.862857s-46.811429-103.862857-103.862857-103.862857c-57.051429 0-103.862857 46.811429-103.862858 103.862857s45.348571 103.862857 103.862858 103.862857z" fill="#A1A69C"></path><path d="M773.851429 839.68c-62.902857 0-114.102857-51.2-114.102858-114.102857s51.2-114.102857 114.102858-114.102857 114.102857 51.2 114.102857 114.102857-51.2 114.102857-114.102857 114.102857z m0-209.188571c-51.2 0-93.622857 42.422857-93.622858 93.622857 0 51.2 42.422857 93.622857 93.622858 93.622857 51.2 0 93.622857-42.422857 93.622857-93.622857 0-51.2-42.422857-93.622857-93.622857-93.622857z" fill="#141515"></path><path d="M773.851429 725.577143m-49.737143 0a49.737143 49.737143 0 1 0 99.474285 0 49.737143 49.737143 0 1 0-99.474285 0Z" fill="#DAD9B4"></path><path d="M773.851429 784.091429c-32.182857 0-59.977143-26.331429-59.977143-59.977143 0-32.182857 26.331429-59.977143 59.977143-59.977143 32.182857 0 59.977143 26.331429 59.977142 59.977143-1.462857 33.645714-27.794286 59.977143-59.977142 59.977143z m0-98.011429c-21.942857 0-39.497143 17.554286-39.497143 39.497143 0 21.942857 17.554286 39.497143 39.497143 39.497143 21.942857 0 39.497143-17.554286 39.497142-39.497143-1.462857-21.942857-19.017143-39.497143-39.497142-39.497143z" fill="#141515"></path><path d="M449.097143 645.12c-5.851429 0-10.24-4.388571-10.24-10.24v-144.822857c0-5.851429 4.388571-10.24 10.24-10.24s10.24 4.388571 10.24 10.24v144.822857c0 5.851429-4.388571 10.24-10.24 10.24z" fill="#141515"></path><path d="M661.211429 396.434286h76.068571c7.314286 0 14.628571 5.851429 14.628571 14.628571v36.571429c0 7.314286-5.851429 14.628571-14.628571 14.628571h-76.068571c-7.314286 0-14.628571-5.851429-14.628572-14.628571V409.6c0-7.314286 7.314286-13.165714 14.628572-13.165714z" fill="#DAE483"></path><path d="M737.28 471.04h-76.068571c-13.165714 0-24.868571-11.702857-24.868572-24.868571V409.6c0-13.165714 11.702857-24.868571 24.868572-24.868571h76.068571c13.165714 0 24.868571 11.702857 24.868571 24.868571v36.571429c0 13.165714-11.702857 24.868571-24.868571 24.868571z m-76.068571-64.365714c-2.925714 0-4.388571 1.462857-4.388572 4.388571v36.571429c0 2.925714 1.462857 4.388571 4.388572 4.388571h76.068571c2.925714 0 4.388571-1.462857 4.388571-4.388571V409.6c0-2.925714-1.462857-4.388571-4.388571-4.388571h-76.068571z" fill="#141515"></path><path d="M43.885714 689.005714h71.68v32.182857H43.885714z" fill="#6E7377"></path><path d="M117.028571 731.428571H43.885714c-5.851429 0-10.24-4.388571-10.24-10.24v-32.182857c0-5.851429 4.388571-10.24 10.24-10.24h73.142857c5.851429 0 10.24 4.388571 10.24 10.24v32.182857c0 5.851429-5.851429 10.24-10.24 10.24z m-62.902857-20.48h51.2v-11.702857H54.125714v11.702857z" fill="#141515"></path><path d="M896.731429 610.011429h64.365714c10.24 0 19.017143 8.777143 19.017143 19.017142v10.24c0 10.24-8.777143 19.017143-19.017143 19.017143h-64.365714c-10.24 0-19.017143-8.777143-19.017143-19.017143V629.028571c0-11.702857 8.777143-19.017143 19.017143-19.017142z" fill="#FFE638"></path><path d="M961.097143 668.525714h-64.365714c-16.091429 0-29.257143-13.165714-29.257143-29.257143V629.028571c0-16.091429 13.165714-29.257143 29.257143-29.257142h64.365714c16.091429 0 29.257143 13.165714 29.257143 29.257142v10.24c0 16.091429-13.165714 29.257143-29.257143 29.257143z m-64.365714-48.274285c-4.388571 0-8.777143 4.388571-8.777143 8.777142v10.24c0 4.388571 4.388571 8.777143 8.777143 8.777143h64.365714c4.388571 0 8.777143-4.388571 8.777143-8.777143V629.028571c0-4.388571-4.388571-8.777143-8.777143-8.777142h-64.365714z" fill="#141515"></path><path d="M934.765714 560.274286m-32.182857 0a32.182857 32.182857 0 1 0 64.365714 0 32.182857 32.182857 0 1 0-64.365714 0Z" fill="#FCDD10"></path><path d="M934.765714 602.697143c-23.405714 0-42.422857-19.017143-42.422857-42.422857 0-23.405714 19.017143-42.422857 42.422857-42.422857s42.422857 19.017143 42.422857 42.422857c1.462857 23.405714-19.017143 42.422857-42.422857 42.422857z m0-64.365714c-11.702857 0-21.942857 10.24-21.942857 21.942857s10.24 21.942857 21.942857 21.942857 21.942857-10.24 21.942857-21.942857-8.777143-21.942857-21.942857-21.942857z" fill="#141515"></path><path d="M507.611429 361.325714c-2.925714 0-5.851429-1.462857-7.314286-2.925714-4.388571-4.388571-4.388571-10.24 0-14.628571l46.811428-46.811429c4.388571-4.388571 10.24-4.388571 14.628572 0 4.388571 4.388571 4.388571 10.24 0 14.628571l-46.811429 46.811429c-1.462857 2.925714-4.388571 2.925714-7.314285 2.925714z" fill="#141515"></path><path d="M514.925714 415.451429c-2.925714 0-5.851429-1.462857-7.314285-2.925715-4.388571-4.388571-4.388571-10.24 0-14.628571l84.845714-87.771429c4.388571-4.388571 10.24-4.388571 14.628571 0 4.388571 4.388571 4.388571 10.24 0 14.628572l-84.845714 87.771428c-1.462857 2.925714-4.388571 2.925714-7.314286 2.925715z" fill="#141515"></path></g></svg>
