<svg height="200px" width="200px" version="1.1" id="Layer_1" xmlns="http://www.w3.org/2000/svg" xmlns:xlink="http://www.w3.org/1999/xlink" viewBox="0 0 511.999 511.999" xml:space="preserve" fill="#000000"><g id="SVGRepo_bgCarrier" stroke-width="0"></g><g id="SVGRepo_tracerCarrier" stroke-linecap="round" stroke-linejoin="round"></g><g id="SVGRepo_iconCarrier"> <g> <path style="fill:#B5E06C;" d="M487.986,278.527c21.637,12.172,16.669,62.099-11.106,111.547 c-27.775,49.436-103.417,92.288-103.417,92.288s-2.741-86.899,25.034-136.335C426.272,296.591,466.337,266.368,487.986,278.527z"></path> <path style="fill:#B5E06C;" d="M483.464,97.137c0,25.198-13.824,47.152-34.277,58.749c0.961,4.487,1.464,9.055,1.464,13.683 c0,9.805-2.226,19.318-6.42,28.373c0,0-82.776,1.358-148.378-23.593c-25.643-9.759-54.075-9.759-79.718,0 c-65.602,24.952-148.378,23.593-148.378,23.593l-0.012,0.012c-4.194-9.067-6.42-18.579-6.42-28.384 c0-4.628,0.504-9.196,1.476-13.683c-20.465-11.598-34.277-33.551-34.277-58.749c0-37.276,30.224-67.5,67.5-67.5 c28.841,0,53.454,18.11,63.107,43.566c28.525-9.36,61.595-14.702,96.857-14.702c35.261,0,68.331,5.342,96.857,14.702 c9.665-25.456,34.266-43.566,63.119-43.566C453.24,29.638,483.464,59.861,483.464,97.137z M446.282,97.137 c0-16.752-13.577-30.317-30.317-30.317c-16.752,0-30.329,13.565-30.329,30.317s13.577,30.329,30.329,30.329 C432.705,127.467,446.282,113.889,446.282,97.137z M126.342,97.137c0-16.752-13.577-30.317-30.317-30.317 c-16.752,0-30.329,13.565-30.329,30.317s13.577,30.329,30.329,30.329C112.765,127.467,126.342,113.889,126.342,97.137z"></path> </g> <path style="fill:#8FB84A;" d="M295.853,174.349c65.602,24.952,148.378,23.593,148.378,23.593 c-13.202,28.631-45.933,52.739-89.582,67.394c-28.936,9.734-62.65,15.311-98.66,15.311c-35.999,0-69.726-5.577-98.649-15.311 c-43.637-14.655-76.38-38.753-89.594-67.382l0.012-0.012c0,0,82.776,1.358,148.378-23.593 C241.779,164.59,270.21,164.59,295.853,174.349z"></path> <path style="fill:#D2E0BA;" d="M415.964,66.82c16.74,0,30.317,13.565,30.317,30.317s-13.577,30.329-30.317,30.329 c-16.752,0-30.329-13.577-30.329-30.329S399.212,66.82,415.964,66.82z"></path> <path style="fill:#8FB84A;" d="M187.517,482.362h-48.909v-6.526V328.97c0-23.453,6.877-45.3,18.731-63.634 c28.924,9.734,62.65,15.311,98.649,15.311c36.011,0,69.726-5.577,98.66-15.311c11.843,18.334,18.731,40.181,18.731,63.634v153.392 h-46.962H187.517z"></path> <path style="fill:#B5E06C;" d="M138.607,475.837c0,4.159-0.07,6.526-0.07,6.526S62.897,439.511,35.12,390.075 C7.345,340.627,2.378,290.699,24.015,278.528c21.648-12.159,61.713,18.064,89.488,67.5 C136.698,387.309,138.607,454.728,138.607,475.837z"></path> <path style="fill:#D2E0BA;" d="M96.025,66.82c16.74,0,30.317,13.565,30.317,30.317s-13.577,30.329-30.317,30.329 c-16.752,0-30.329-13.577-30.329-30.329S79.273,66.82,96.025,66.82z"></path> <path d="M136.922,97.137c0-22.551-18.346-40.897-40.897-40.897c-22.557,0-40.909,18.346-40.909,40.897 c0,22.557,18.352,40.909,40.909,40.909C118.576,138.047,136.922,119.695,136.922,97.137z M76.276,97.137 c0-10.883,8.859-19.738,19.749-19.738c10.883,0,19.738,8.854,19.738,19.738c0,10.89-8.854,19.749-19.738,19.749 C85.135,116.887,76.276,108.028,76.276,97.137z"></path> <path d="M415.964,138.047c22.551,0,40.897-18.352,40.897-40.909c0-22.551-18.346-40.897-40.897-40.897 c-22.557,0-40.91,18.346-40.91,40.897C375.054,119.695,393.407,138.047,415.964,138.047z M415.964,77.399 c10.883,0,19.738,8.854,19.738,19.738c0,10.89-8.854,19.749-19.738,19.749c-10.891,0-19.75-8.859-19.75-19.749 C396.214,86.254,405.073,77.399,415.964,77.399z"></path> <path d="M217.354,145.872c5.842,0,10.58-4.737,10.58-10.58v-3.912c0-5.843-4.738-10.58-10.58-10.58s-10.58,4.737-10.58,10.58v3.912 C206.774,141.135,211.51,145.872,217.354,145.872z"></path> <path d="M288.767,145.872c5.842,0,10.58-4.737,10.58-10.58v-3.912c0-5.843-4.738-10.58-10.58-10.58 c-5.842,0-10.58,4.737-10.58,10.58v3.912C278.187,141.135,282.924,145.872,288.767,145.872z"></path> <path d="M102.58,471.782H38.33c-5.842,0-10.58,4.737-10.58,10.58c0,5.843,4.738,10.58,10.58,10.58h100.136 c0.013,0,0.026-0.002,0.039-0.002c0.011,0,0.021,0.002,0.031,0.002s0.021-0.002,0.031-0.002c0.013,0,0.026,0.002,0.039,0.002 h234.774c0.014,0,0.028-0.002,0.041-0.002c0.014,0,0.028,0.002,0.041,0.002H473.6c5.842,0,10.58-4.737,10.58-10.58 c0-5.843-4.738-10.58-10.58-10.58h-64.18c25.176-17.732,59.32-45.622,76.684-76.527c31.615-56.285,34.654-110.432,7.062-125.953 c-27.604-15.507-72.268,15.254-103.892,71.541c-1.905,3.391-3.671,6.939-5.313,10.604V328.97c0-20.29-4.775-40.096-13.883-57.989 c41.126-16.092,70.637-40.165,83.754-68.594c0.059-0.127,0.108-0.256,0.165-0.383c0.02-0.048,0.042-0.094,0.061-0.142 c4.75-10.442,7.173-21.302,7.173-32.294c0-2.818-0.162-5.656-0.486-8.489c20.708-14.533,33.299-38.403,33.299-63.943 c0-43.053-35.025-78.08-78.08-78.08c-28.867,0-55.42,16.251-68.866,41.301c-28.11-8.153-59.395-12.437-91.11-12.437 c-31.714,0-62.999,4.285-91.108,12.435c-13.436-25.053-39.984-41.3-68.856-41.3c-43.053,0-78.08,35.026-78.08,78.08 c0,25.542,12.588,49.411,33.289,63.939c-0.325,2.829-0.488,5.668-0.488,8.493c0,11.17,2.489,22.214,7.393,32.818 c13.119,28.425,42.639,52.498,83.767,68.593c-9.106,17.881-13.88,37.687-13.88,57.991v22.471c-1.643-3.656-3.397-7.208-5.302-10.598 C91.1,284.553,46.431,253.802,18.829,269.306C-8.758,284.824-5.72,338.97,25.897,395.257 C43.26,426.161,77.405,454.052,102.58,471.782z M255.989,291.227c32.776,0,65.021-4.584,93.853-13.273 c8.497,15.603,12.959,33.082,12.959,51.017v142.812h-25.805v-72.864c0-5.843-4.738-10.58-10.58-10.58 c-5.842,0-10.58,4.737-10.58,10.58v72.864H198.095V362.721c0-5.843-4.738-10.58-10.58-10.58s-10.58,4.737-10.58,10.58v109.063 h-27.75V328.97c0-17.949,4.461-35.427,12.957-51.017C190.97,286.643,223.211,291.227,255.989,291.227z M407.72,351.21L407.72,351.21 c24.424-43.471,53.939-64.793,69.345-64.793c2.225,0,4.155,0.444,5.733,1.331c12.509,7.037,12.802,47.398-15.142,97.143 c-18.436,32.812-60.386,63.288-83.464,78.373C385.074,435.707,389.283,384.024,407.72,351.21z M39.105,97.137 c0-31.386,25.534-56.92,56.92-56.92c23.497,0,44.881,14.764,53.214,36.738c2.006,5.29,7.814,8.065,13.192,6.301 c28.26-9.273,60.611-14.174,93.559-14.174c32.946,0,65.298,4.902,93.558,14.174c5.373,1.764,11.182-1.01,13.19-6.297 c8.344-21.976,29.734-36.742,53.229-36.742c31.386,0,56.92,25.534,56.92,56.92c0,20.448-11.08,39.433-28.917,49.546 c-4.018,2.279-6.094,6.901-5.127,11.419c0.816,3.813,1.23,7.67,1.23,11.467c0,5.967-1.005,11.917-2.981,17.76 c-20.981-0.332-85.301-3.025-137.474-22.868c-28.131-10.705-59.113-10.705-87.242,0c-52.107,19.82-116.51,22.527-137.49,22.867 c-1.973-5.846-2.978-11.794-2.978-17.757c0-3.81,0.416-7.66,1.236-11.442c0.981-4.525-1.095-9.162-5.124-11.445 C50.184,136.575,39.105,117.591,39.105,97.137z M86.454,208.216c28.754-1.076,85.125-5.601,133.444-23.979 c23.278-8.858,48.914-8.858,72.194,0c48.31,18.375,104.674,22.901,133.431,23.978c-15.08,19.292-41.162,35.985-74.247,47.094 c-28.699,9.655-61.648,14.759-95.287,14.759c-33.644,0-66.588-5.104-95.281-14.761C127.626,244.197,101.542,227.506,86.454,208.216z M29.197,287.751c1.58-0.888,3.51-1.332,5.737-1.332c15.409,0,44.924,21.322,69.346,64.79l0,0 c18.511,32.947,22.681,84.859,23.54,112.074c-23.066-15.065-65.006-45.518-83.475-78.39 C16.401,335.147,16.692,294.785,29.197,287.751z"></path> <path d="M326.416,378.844c5.842,0,10.58-4.737,10.58-10.58v-5.544c0-5.843-4.738-10.58-10.58-10.58 c-5.842,0-10.58,4.737-10.58,10.58v5.544C315.836,374.108,320.574,378.844,326.416,378.844z"></path> </g></svg>
