<svg version="1.1" id="Layer_1" xmlns="http://www.w3.org/2000/svg" xmlns:xlink="http://www.w3.org/1999/xlink" viewBox="0 0 512 512" xml:space="preserve" fill="#000000"><g id="SVGRepo_bgCarrier" stroke-width="0"></g><g id="SVGRepo_tracerCarrier" stroke-linecap="round" stroke-linejoin="round"></g><g id="SVGRepo_iconCarrier"> <g> <path style="fill:#d39e78;" d="M71.258,488.247c34.943,0,63.34-51.939,63.34-116.124S106.2,256,71.258,256h369.485 c34.943,0,63.34,51.939,63.34,116.124s-28.398,116.124-63.34,116.124H71.258z"></path> <path style="fill:#d39e78;" d="M71.258,256c34.943,0,63.34-51.939,63.34-116.124S106.2,23.753,71.258,23.753h369.485 c34.943,0,63.34,51.939,63.34,116.124S475.685,256,440.742,256H71.258z"></path> </g> <g> <path style="fill:#d89a6f;" d="M71.258,256c34.943,0,63.34,51.939,63.34,116.124S106.2,488.247,71.258,488.247 s-63.34-51.939-63.34-116.124S36.315,256,71.258,256z"></path> <path style="fill:#d89a6f;" d="M71.258,23.753c34.943,0,63.34,51.939,63.34,116.124S106.2,256,71.258,256 s-63.34-51.939-63.34-116.124S36.315,23.753,71.258,23.753z"></path> </g> <g> <path style="fill:#7c5d46;" d="M71.258,256h369.485c34.943,0,63.34-51.939,63.34-116.124H134.598 C134.598,204.061,106.2,256,71.258,256z"></path> <path style="fill:#7c5d46;" d="M71.258,488.247h369.485c34.943,0,63.34-51.939,63.34-116.124H134.598 C134.598,436.308,106.2,488.247,71.258,488.247z"></path> </g> <path d="M466.267,256C493.258,238.485,512,193.696,512,139.876c0-69.556-31.3-124.041-71.258-124.041H229.606V31.67h211.136 c30.042,0,55.423,49.552,55.423,108.206c0,24.587-4.461,47.571-11.854,65.979H203.217v15.835H476.56 c-9.741,16.365-22.307,26.392-35.818,26.392H106.609c16.115-15.718,28.166-42.029,33.25-73.897h269.213v-15.835H141.761 c0.495-6.016,0.755-12.182,0.755-18.474c0-47.011-14.301-87.133-35.907-108.206h101.886V15.835H71.258 C31.3,15.835,0,70.32,0,139.876C0,193.696,18.742,238.485,45.733,256C18.742,273.515,0,318.304,0,372.124 c0,69.556,31.3,124.041,71.258,124.041H329.9V480.33H106.609c21.605-21.073,35.907-61.195,35.907-108.206 c0-22.198-3.192-42.855-8.832-60.701h264.832v-15.835H127.718c-5.721-12.871-12.886-23.649-21.109-31.67h334.133 c30.042,0,55.423,49.552,55.423,108.206s-25.38,108.206-55.423,108.206H351.01v15.835h89.732C480.7,496.165,512,441.68,512,372.124 C512,318.304,493.258,273.515,466.267,256z M15.835,139.876c0-58.654,25.38-108.206,55.423-108.206s55.423,49.552,55.423,108.206 S101.3,248.082,71.258,248.082S15.835,198.53,15.835,139.876z M126.68,372.124c0,58.654-25.38,108.206-55.423,108.206 s-55.423-49.552-55.423-108.206s25.38-108.206,55.423-108.206S126.68,313.47,126.68,372.124z"></path> <path d="M36.948,377.402h15.835c0-35.861,12.205-55.423,18.474-55.423v-15.835c-10.449,0-19.671,8.325-25.967,23.439 C39.911,342.497,36.948,359.479,36.948,377.402z"></path> <g> <path style="fill:#ffc7c7;" d="M71.258,448.66c10.449,0,19.671-8.325,25.967-23.439c5.38-12.914,8.342-29.896,8.342-47.819H89.732 c0,35.861-12.205,55.423-18.474,55.423V448.66z"></path> <rect x="36.948" y="393.237" style="fill:#ffc7c7;" width="15.835" height="21.113"></rect> </g> <rect x="89.732" y="340.454" width="15.835" height="21.113"></rect> <rect x="414.351" y="295.588" style="fill:#ffc7c7;" width="21.113" height="15.835"></rect> <rect x="192.66" y="343.093" width="274.474" height="15.835"></rect> <rect x="219.052" y="385.32" style="fill:#ffc7c7;" width="163.629" height="15.835"></rect> <rect x="419.629" y="385.32" width="21.113" height="15.835"></rect> <rect x="150.433" y="438.103" width="285.031" height="15.835"></rect> <path style="fill:#ffc7c7;" d="M71.258,73.897c-10.449,0-19.671,8.325-25.967,23.439c-5.38,12.914-8.342,29.896-8.342,47.819h15.835 c0-35.861,12.205-55.423,18.474-55.423V73.897z"></path> <path d="M105.567,145.155H89.732c0,35.861-12.205,55.423-18.474,55.423v15.835c10.449,0,19.671-8.325,25.967-23.439 C102.605,180.059,105.567,163.078,105.567,145.155z"></path> <rect x="36.948" y="160.99" width="15.835" height="21.113"></rect> <g> <rect x="89.732" y="108.206" style="fill:#ffc7c7;" width="15.835" height="21.113"></rect> <rect x="166.268" y="205.856" style="fill:#ffc7c7;" width="21.113" height="15.835"></rect> <rect x="219.052" y="116.124" style="fill:#ffc7c7;" width="163.629" height="15.835"></rect> </g> <rect x="160.99" y="116.124" width="21.113" height="15.835"></rect> <rect x="166.268" y="63.34" width="285.031" height="15.835"></rect> </g></svg>
