<svg height="200px" width="200px" version="1.1" id="Layer_1" xmlns="http://www.w3.org/2000/svg" xmlns:xlink="http://www.w3.org/1999/xlink" viewBox="0 0 512 512" xml:space="preserve" fill="#000000"><g id="SVGRepo_bgCarrier" stroke-width="0"></g><g id="SVGRepo_tracerCarrier" stroke-linecap="round" stroke-linejoin="round"></g><g id="SVGRepo_iconCarrier"> <path style="fill:#B6731B;" d="M279.273,69.818h-93.091c-12.853,0-23.273,10.422-23.273,23.273v93.091 c0,12.854,10.42,23.273,23.273,23.273h93.091c12.853,0,23.273-10.418,23.273-23.273V93.091 C302.545,80.24,292.125,69.818,279.273,69.818z"></path> <path style="fill:#ECB45C;" d="M426.667,395.636V209.455c12.853,0,23.273-10.418,23.273-23.273c0-12.851-10.42-23.273-23.273-23.273 H85.333c-25.581,0-48.458,16.48-64.419,46.403C7.427,234.6,0,267.712,0,302.545s7.427,67.942,20.914,93.234 c15.96,29.924,38.838,46.403,64.419,46.403h341.333c12.853,0,23.273-10.418,23.273-23.273 C449.939,406.058,439.519,395.636,426.667,395.636z"></path> <path style="fill:#D5851F;" d="M426.667,395.636v-93.091H0c0,34.833,7.427,67.942,20.914,93.234 c15.96,29.924,38.838,46.403,64.419,46.403h341.333c12.853,0,23.273-10.418,23.273-23.273 C449.939,406.058,439.519,395.636,426.667,395.636z"></path> <g> <path style="fill:#B6731B;" d="M155.152,256H24.515c-12.853,0-23.273,10.422-23.273,23.273c0,12.854,10.42,23.273,23.273,23.273 h130.636c12.853,0,23.273-10.418,23.273-23.273C178.424,266.422,168.004,256,155.152,256z"></path> <path style="fill:#B6731B;" d="M365.849,302.545H248.242c-12.853,0-23.273,10.422-23.273,23.273 c0,12.854,10.42,23.273,23.273,23.273h117.606c12.853,0,23.273-10.418,23.273-23.273 C389.122,312.967,378.702,302.545,365.849,302.545z"></path> </g> <path style="fill:#F4D8AA;" d="M491.084,209.312c-15.959-29.923-38.836-46.403-64.417-46.403s-48.458,16.48-64.419,46.403 c-13.487,25.288-20.914,58.401-20.914,93.234s7.427,67.942,20.914,93.234c15.96,29.924,38.838,46.403,64.419,46.403 s48.458-16.479,64.417-46.403C504.573,370.488,512,337.379,512,302.545S504.573,234.6,491.084,209.312z"></path> <path style="fill:#ECB45C;" d="M491.084,209.312c-15.959-29.923-38.836-46.403-64.417-46.403v279.273 c25.581,0,48.458-16.479,64.417-46.403C504.573,370.488,512,337.379,512,302.545S504.573,234.6,491.084,209.312z"></path> </g></svg>
