<svg height="200px" width="200px" version="1.1" id="Layer_1" xmlns="http://www.w3.org/2000/svg" xmlns:xlink="http://www.w3.org/1999/xlink" viewBox="0 0 512 512" xml:space="preserve" fill="#000000" transform="rotate(90)"><g id="SVGRepo_bgCarrier" stroke-width="0"></g><g id="SVGRepo_tracerCarrier" stroke-linecap="round" stroke-linejoin="round"></g><g id="SVGRepo_iconCarrier"> <polygon style="fill:#B54E25;" points="503.83,146.748 418.86,231.718 418.86,503.83 385.078,503.83 352.398,256 385.078,8.17 418.86,8.17 418.86,185.497 480.714,123.643 "></polygon> <polygon style="fill:#C16C49;" points="385.078,8.17 385.078,503.83 336.057,503.83 303.376,492.936 287.036,503.83 174.843,503.83 142.162,261.447 174.843,19.064 191.183,8.17 303.376,8.17 319.717,29.957 336.057,8.17 "></polygon> <g> <polygon style="fill:#B54E25;" points="336.059,8.17 303.379,8.17 303.379,492.936 319.719,503.83 336.059,503.83 "></polygon> <path style="fill:#B54E25;" d="M174.843,19.064V503.83H93.14V379.871l-84.97-84.97l23.116-23.105L93.14,333.65V207.523 c-17.974,0-32.681-14.706-32.681-32.681v-26.221L8.17,96.332l38.52-38.509l46.45,47.507V8.17h65.362L174.843,19.064z"></path> </g> <g> <path style="fill:#683520;" d="M206.983,138.386c-17.447,0-31.591,14.118-31.591,31.534v56.761 c0,17.416,14.144,31.534,31.591,31.534s31.591-14.118,31.591-31.534V169.92C238.575,152.504,224.43,138.386,206.983,138.386z"></path> <path style="fill:#683520;" d="M305.017,138.386c17.447,0,31.591,14.118,31.591,31.534v56.761 c0,17.416-14.144,31.534-31.591,31.534s-31.591-14.118-31.591-31.534V169.92C273.425,152.504,287.57,138.386,305.017,138.386z"></path> </g> <g> <path style="fill:#440852;" d="M246.745,226.682v-56.761c0-21.893-17.837-39.704-39.762-39.704s-39.762,17.812-39.762,39.704 v56.761c0,21.893,17.837,39.704,39.762,39.704S246.745,248.575,246.745,226.682z M183.562,226.682v-56.761 c0-12.883,10.507-23.364,23.421-23.364s23.421,10.481,23.421,23.364v56.761c0,12.883-10.507,23.364-23.421,23.364 S183.562,239.565,183.562,226.682z"></path> <path style="fill:#440852;" d="M305.017,130.216c-21.924,0-39.762,17.812-39.762,39.704v56.761 c0,21.893,17.837,39.704,39.762,39.704s39.762-17.812,39.762-39.704V169.92C344.779,148.028,326.941,130.216,305.017,130.216z M328.438,226.682c0,12.883-10.507,23.364-23.421,23.364c-12.914,0-23.421-10.481-23.421-23.364v-56.761 c0-12.883,10.507-23.364,23.421-23.364c12.914,0,23.421,10.481,23.421,23.364V226.682z"></path> <path style="fill:#440852;" d="M303.387,284.606l-21.089,17.469l-21.09-17.469c-3.023-2.507-7.4-2.504-10.424,0l-21.086,17.469 l-21.084-17.469c-3.474-2.878-8.624-2.396-11.505,1.078c-2.879,3.474-2.396,8.626,1.078,11.505l26.297,21.787 c1.512,1.252,3.362,1.879,5.213,1.879c1.85,0,3.701-0.626,5.213-1.879l21.086-17.469l21.089,17.469c3.022,2.504,7.4,2.504,10.424,0 l26.302-21.787c3.475-2.878,3.959-8.029,1.081-11.504C312.012,282.208,306.861,281.726,303.387,284.606z"></path> <path style="fill:#440852;" d="M509.604,140.973l-23.109-23.109c-3.191-3.19-8.364-3.19-11.554,0l-47.912,47.912V8.17 c0-4.513-3.658-8.17-8.17-8.17H191.183c-1.612,0-3.19,0.477-4.532,1.373l-11.809,7.872l-11.809-7.872 C161.692,0.477,160.115,0,158.502,0H93.14c-4.512,0-8.17,3.657-8.17,8.17v77.117L52.53,52.11c-1.526-1.561-3.613-2.446-5.796-2.459 c-2.136-0.009-4.28,0.849-5.823,2.392L2.396,90.559c-3.191,3.192-3.191,8.364,0,11.555l49.894,49.894v22.835 c0,18.894,12.898,34.826,30.349,39.474v97.281l-45.579-45.58c-3.19-3.19-8.363-3.19-11.554,0l-23.11,23.109 c-1.533,1.533-2.393,3.61-2.393,5.778s0.861,4.244,2.393,5.778l82.575,82.574V503.83c0,4.513,3.658,8.17,8.17,8.17h193.898 c1.612,0,3.19-0.477,4.532-1.373l11.809-7.873l11.809,7.873c1.342,0.894,2.919,1.373,4.532,1.373h99.141 c4.512,0,8.17-3.657,8.17-8.17V235.103l82.575-82.575c1.533-1.533,2.393-3.61,2.393-5.778S511.137,142.506,509.604,140.973z M413.083,225.941c-1.533,1.533-2.393,3.61-2.393,5.778v263.94h-88.496l-10.644-7.096v-82.776c0-4.513-3.658-8.17-8.17-8.17 c-4.512,0-8.17,3.657-8.17,8.17v82.776l-10.644,7.096H133.991v-57.191c0-4.513-3.658-8.17-8.17-8.17s-8.17,3.657-8.17,8.17v57.191 h-16.34V379.872c0-2.167-0.861-4.244-2.393-5.778l-79.19-79.19l11.555-11.554l56.081,56.081c2.337,2.338,5.852,3.037,8.903,1.77 c3.053-1.264,5.044-4.244,5.044-7.548V207.523c0-4.513-3.658-8.17-8.17-8.17c-13.516,0-24.511-10.996-24.511-24.511v-26.219 c0-2.167-0.861-4.244-2.393-5.778L19.727,96.337l26.895-26.894l38.348,39.218v29.35c0,4.513,3.658,8.17,8.17,8.17 c4.512,0,8.17-3.657,8.17-8.17V16.34h54.718l10.644,7.096v71.883c0,4.513,3.658,8.17,8.17,8.17c4.512,0,8.17-3.657,8.17-8.17 V23.437l10.644-7.096H376.91v389.447c0,4.513,3.658,8.17,8.17,8.17c4.512,0,8.17-3.657,8.17-8.17V16.34h17.439v169.16 c0,3.304,1.99,6.285,5.044,7.548c3.052,1.266,6.568,0.566,8.903-1.77l56.081-56.081l11.555,11.554L413.083,225.941z"></path> <path style="fill:#440852;" d="M125.821,32.681c-4.512,0-8.17,3.657-8.17,8.17v364.936c0,4.513,3.658,8.17,8.17,8.17 s8.17-3.657,8.17-8.17V40.851C133.991,36.338,130.333,32.681,125.821,32.681z"></path> <path style="fill:#440852;" d="M336.059,364.936c-4.512,0-8.17,3.657-8.17,8.17v98.043c0,4.513,3.658,8.17,8.17,8.17 c4.512,0,8.17-3.657,8.17-8.17v-98.043C344.23,368.593,340.572,364.936,336.059,364.936z"></path> <path style="fill:#440852;" d="M336.059,321.362c-4.512,0-8.17,3.657-8.17,8.17v10.894c0,4.513,3.658,8.17,8.17,8.17 c4.512,0,8.17-3.657,8.17-8.17v-10.894C344.23,325.019,340.572,321.362,336.059,321.362z"></path> </g> </g></svg>
