<svg width="178px" height="178px" viewBox="0 0 1024 1024" class="icon" version="1.1" xmlns="http://www.w3.org/2000/svg" fill="#000000" transform="rotate(90)"><g id="SVGRepo_bgCarrier" stroke-width="0"></g><g id="SVGRepo_tracerCarrier" stroke-linecap="round" stroke-linejoin="round"></g><g id="SVGRepo_iconCarrier"><path d="M930.3 783.2V181.9H95.4v592.6c0 37.5-21.7 70.3-54 89.5-12.6 7.5-19.3 15.4-19.3 23.6 0 46.7 215.9 84.5 482.2 84.5s482.2-37.8 482.2-84.5c0-6.1-3.8-12.1-10.9-17.9-26.8-21.7-45.3-51.9-45.3-86.5z" fill="#A86B48"></path><path d="M997.7 918.3c-3.6 0-7-1.9-8.8-5.2l-45.4-83.8c-17.1-31.6-26.2-67.4-26.2-103.4v-534H102.5v534c0 36-9.1 71.7-26.2 103.4l-45.4 83.8c-2.6 4.9-8.7 6.7-13.6 4-4.9-2.6-6.7-8.7-4-13.6l45.4-83.8c15.6-28.7 23.8-61.2 23.8-93.9v-544c0-5.5 4.5-10 10-10h834.8c5.5 0 10 4.5 10 10v544c0 32.7 8.2 65.1 23.8 93.9l45.4 83.8c2.6 4.9 0.8 10.9-4 13.6-1.5 0.8-3.2 1.2-4.8 1.2z" fill=""></path><path d="M89.5 181.9a420.4 133.3 0 1 0 840.8 0 420.4 133.3 0 1 0-840.8 0Z" fill="#A86B48"></path><path d="M509.9 325.2c-113.3 0-219.9-14-300.3-39.5-39.7-12.6-71-27.4-93.1-43.9-24.6-18.4-37-38.6-37-59.9s12.5-41.5 37-59.9c22.1-16.6 53.4-31.3 93.1-43.9 80.3-25.5 187-39.5 300.3-39.5 113.3 0 219.9 14 300.3 39.5 39.7 12.6 71 27.4 93.1 43.9 24.6 18.4 37 38.6 37 59.9s-12.5 41.5-37 59.9c-22.1 16.6-53.4 31.3-93.1 43.9-80.4 25.5-187 39.5-300.3 39.5z m0-266.6c-111.3 0-215.8 13.7-294.2 38.6-73.8 23.4-116.1 54.3-116.1 84.7s42.3 61.3 116.1 84.7c78.4 24.9 182.9 38.6 294.2 38.6 111.3 0 215.8-13.7 294.2-38.6 73.8-23.4 116.1-54.3 116.1-84.7s-42.3-61.3-116.1-84.7c-78.4-24.9-182.9-38.6-294.2-38.6z" fill=""></path><path d="M509.9 267.6c-64.7 0-125.7-8-171.7-22.6-63.5-20.1-76.8-45.4-76.8-63 0-5.5 4.5-10 10-10s10 4.5 10 10c0 14.8 24.1 31.7 62.9 44 44.1 14 102.9 21.7 165.6 21.7 62.7 0 121.5-7.7 165.6-21.7 38.8-12.3 62.9-29.1 62.9-44s-24.1-31.7-62.9-44c-44.1-14-102.9-21.7-165.6-21.7-5.5 0-10-4.5-10-10s4.5-10 10-10c64.7 0 125.7 8 171.7 22.6 63.5 20.1 76.8 45.4 76.8 63s-13.3 42.9-76.8 63c-46 14.6-107 22.7-171.7 22.7zM168.1 809.2c-5.5 0-10-4.5-10-10V523.6c0-5.5 4.5-10 10-10s10 4.5 10 10v275.6c0 5.5-4.5 10-10 10zM236.2 555.1c-5.5 0-10-4.5-10-10V301.4c0-5.5 4.5-10 10-10s10 4.5 10 10v243.7c0 5.6-4.4 10-10 10zM634.2 479.3c-5.5 0-10-4.5-10-10V323.4c0-5.5 4.5-10 10-10s10 4.5 10 10v145.9c0 5.6-4.4 10-10 10zM722.2 703.6c-5.5 0-10-4.5-10-10V396.4c0-5.5 4.5-10 10-10s10 4.5 10 10v297.2c0 5.6-4.5 10-10 10zM810.1 774c-5.5 0-10-4.5-10-10V339.8c0-5.5 4.5-10 10-10s10 4.5 10 10V764c0 5.5-4.4 10-10 10z" fill=""></path></g></svg>
