<svg viewBox="0 -2 20.001 20.001" xmlns="http://www.w3.org/2000/svg" fill="#000000"><g id="SVGRepo_bgCarrier" stroke-width="0"></g><g id="SVGRepo_tracerCarrier" stroke-linecap="round" stroke-linejoin="round"></g><g id="SVGRepo_iconCarrier"> <g id="truck-box" transform="translate(-1.999 -4)"> <path id="secondary" fill="#2c8aba" d="M3.76,10.81,5,10.5l.79-2.77a1,1,0,0,1,1-.73H11V6a1,1,0,0,1,1-1h8a1,1,0,0,1,1,1V16a1,1,0,0,1-1,1H19a2,2,0,0,0-4,0H9a2,2,0,0,0-4,0H4a1,1,0,0,1-1-1V11.78A1,1,0,0,1,3.76,10.81Z"></path> <path id="primary" d="M15,17H11V6a1,1,0,0,1,1-1h8a1,1,0,0,1,1,1V16a1,1,0,0,1-1,1H19" fill="none" stroke="#000000" stroke-linecap="round" stroke-linejoin="round" stroke-width="2"></path> <path id="primary-2" data-name="primary" d="M5,17H4a1,1,0,0,1-1-1V11.78a1,1,0,0,1,.76-1L5,10.5l.79-2.77a1,1,0,0,1,1-.73H11V17H9" fill="none" stroke="#000000" stroke-linecap="round" stroke-linejoin="round" stroke-width="2"></path> <path id="primary-3" data-name="primary" d="M15,17a2,2,0,1,0,2-2A2,2,0,0,0,15,17ZM5,17a2,2,0,1,0,2-2A2,2,0,0,0,5,17Z" fill="none" stroke="#000000" stroke-linecap="round" stroke-linejoin="round" stroke-width="2"></path> </g> </g></svg>
