<svg viewBox="0 0 1024 1024" class="icon" version="1.1" xmlns="http://www.w3.org/2000/svg" fill="#000000"><g id="SVGRepo_bgCarrier" stroke-width="0"></g><g id="SVGRepo_tracerCarrier" stroke-linecap="round" stroke-linejoin="round"></g><g id="SVGRepo_iconCarrier"><path d="M182.857143 465.188571h84.845714l17.554286-89.234285c7.314286-33.645714 38.034286-62.902857 73.142857-64.365715h68.754286v327.68H93.622857v-87.771428c2.925714-48.274286 42.422857-86.308571 89.234286-86.308572z" fill="#8F7EB1"></path><path d="M438.857143 649.508571H86.308571v-98.011428c0-54.125714 43.885714-98.011429 98.011429-98.011429h76.068571l16.091429-80.457143c7.314286-38.034286 43.885714-70.217143 81.92-73.142857H440.32v349.622857H438.857143zM106.788571 629.028571h310.125715V321.828571h-58.514286c-29.257143 2.925714-57.051429 26.331429-62.902857 57.051429l-19.017143 96.548571h-93.622857c-42.422857 0-76.068571 35.108571-76.068572 76.068572V629.028571z" fill="#141515"></path><path d="M96.548571 629.028571v-76.068571c0-40.96 27.794286-74.605714 64.365715-84.845714v160.914285H96.548571z" fill="#848692"></path><path d="M160.914286 637.805714H96.548571c-5.851429 0-10.24-4.388571-10.24-10.24v-76.068571c0-43.885714 29.257143-83.382857 73.142858-93.622857 2.925714-1.462857 5.851429 0 8.777142 1.462857 2.925714 1.462857 4.388571 4.388571 4.388572 8.777143v160.914285c-1.462857 4.388571-5.851429 8.777143-11.702857 8.777143z m-54.125715-21.942857h43.885715v-136.045714c-26.331429 13.165714-43.885714 39.497143-43.885715 70.217143v65.828571z" fill="#141515"></path><path d="M425.691429 637.805714h560.274285v109.714286H425.691429z" fill="#555658"></path><path d="M985.965714 759.222857H425.691429c-5.851429 0-10.24-4.388571-10.24-10.24v-109.714286c0-5.851429 4.388571-10.24 10.24-10.24h560.274285c5.851429 0 10.24 4.388571 10.24 10.24v109.714286c0 4.388571-4.388571 10.24-10.24 10.24z m-550.034285-20.48h539.794285v-89.234286H435.931429v89.234286z" fill="#141515"></path><path d="M296.96 468.114286l8.777143-51.2c4.388571-23.405714 23.405714-42.422857 45.348571-43.885715H393.508571V468.114286h-96.548571z" fill="#90CED9"></path><path d="M405.211429 479.817143h-119.954286l11.702857-62.902857c4.388571-27.794286 27.794286-51.2 54.125714-52.662857h54.125715v115.565714z m-95.085715-20.48h74.605715v-74.605714h-29.257143l-1.462857-10.24v10.24c-17.554286 1.462857-33.645714 17.554286-36.571429 35.108571l-7.314286 39.497143zM296.96 608.548571c-5.851429 0-10.24-4.388571-10.24-10.24v-80.457142c0-5.851429 4.388571-10.24 10.24-10.24s10.24 4.388571 10.24 10.24v80.457142c1.462857 5.851429-4.388571 10.24-10.24 10.24z" fill="#141515"></path><path d="M671.451429 811.885714c43.885714 0 78.994286-35.108571 78.994285-78.994285s-35.108571-78.994286-78.994285-78.994286-78.994286 35.108571-78.994286 78.994286c-1.462857 42.422857 35.108571 78.994286 78.994286 78.994285z" fill="#A1A69C"></path><path d="M671.451429 820.662857c-49.737143 0-89.234286-40.96-89.234286-89.234286 0-49.737143 40.96-89.234286 89.234286-89.234285 49.737143 0 89.234286 40.96 89.234285 89.234285 0 49.737143-40.96 89.234286-89.234285 89.234286z m0-157.988571c-38.034286 0-68.754286 30.72-68.754286 68.754285s30.72 68.754286 68.754286 68.754286 68.754286-30.72 68.754285-68.754286-30.72-68.754286-68.754285-68.754285z" fill="#141515"></path><path d="M868.937143 811.885714c43.885714 0 78.994286-35.108571 78.994286-78.994285s-35.108571-78.994286-78.994286-78.994286-78.994286 35.108571-78.994286 78.994286c-1.462857 42.422857 35.108571 78.994286 78.994286 78.994285z" fill="#A1A69C"></path><path d="M868.937143 820.662857c-49.737143 0-89.234286-40.96-89.234286-89.234286 0-49.737143 40.96-89.234286 89.234286-89.234285 49.737143 0 89.234286 40.96 89.234286 89.234285 0 49.737143-40.96 89.234286-89.234286 89.234286z m0-157.988571c-38.034286 0-68.754286 30.72-68.754286 68.754285s30.72 68.754286 68.754286 68.754286 68.754286-30.72 68.754286-68.754286-30.72-68.754286-68.754286-68.754285z" fill="#141515"></path><path d="M671.451429 731.428571m-38.034286 0a38.034286 38.034286 0 1 0 76.068571 0 38.034286 38.034286 0 1 0-76.068571 0Z" fill="#DAD9B4"></path><path d="M671.451429 779.702857c-26.331429 0-48.274286-21.942857-48.274286-48.274286s21.942857-48.274286 48.274286-48.274285 48.274286 21.942857 48.274285 48.274285c-1.462857 26.331429-21.942857 48.274286-48.274285 48.274286z m0-76.068571c-14.628571 0-26.331429 11.702857-26.331429 26.331428s11.702857 26.331429 26.331429 26.331429 26.331429-11.702857 26.331428-26.331429c0-13.165714-11.702857-26.331429-26.331428-26.331428z" fill="#141515"></path><path d="M868.937143 731.428571m-38.034286 0a38.034286 38.034286 0 1 0 76.068572 0 38.034286 38.034286 0 1 0-76.068572 0Z" fill="#DAD9B4"></path><path d="M868.937143 779.702857c-26.331429 0-48.274286-21.942857-48.274286-48.274286s21.942857-48.274286 48.274286-48.274285 48.274286 21.942857 48.274286 48.274285c-1.462857 26.331429-21.942857 48.274286-48.274286 48.274286z m0-76.068571c-14.628571 0-26.331429 11.702857-26.331429 26.331428s11.702857 26.331429 26.331429 26.331429 26.331429-11.702857 26.331428-26.331429c0-13.165714-11.702857-26.331429-26.331428-26.331428z" fill="#141515"></path><path d="M65.828571 637.805714h359.862858v59.977143H65.828571z" fill="#848692"></path><path d="M425.691429 709.485714H65.828571c-5.851429 0-10.24-4.388571-10.24-10.24v-59.977143c0-5.851429 4.388571-10.24 10.24-10.24h359.862858c5.851429 0 10.24 4.388571 10.24 10.24v59.977143c0 4.388571-4.388571 10.24-10.24 10.24zM76.068571 687.542857h339.382858v-39.497143H76.068571V687.542857z" fill="#141515"></path><path d="M201.874286 811.885714c43.885714 0 78.994286-35.108571 78.994285-78.994285s-35.108571-78.994286-78.994285-78.994286-78.994286 35.108571-78.994286 78.994286c0 42.422857 35.108571 78.994286 78.994286 78.994285z" fill="#A1A69C"></path><path d="M201.874286 820.662857c-49.737143 0-89.234286-40.96-89.234286-89.234286 0-49.737143 40.96-89.234286 89.234286-89.234285 49.737143 0 89.234286 40.96 89.234285 89.234285s-39.497143 89.234286-89.234285 89.234286z m0-157.988571c-38.034286 0-68.754286 30.72-68.754286 68.754285s30.72 68.754286 68.754286 68.754286 68.754286-30.72 68.754285-68.754286-30.72-68.754286-68.754285-68.754285z" fill="#141515"></path><path d="M201.874286 731.428571m-38.034286 0a38.034286 38.034286 0 1 0 76.068571 0 38.034286 38.034286 0 1 0-76.068571 0Z" fill="#DAD9B4"></path><path d="M201.874286 779.702857c-26.331429 0-48.274286-21.942857-48.274286-48.274286s21.942857-48.274286 48.274286-48.274285 48.274286 21.942857 48.274285 48.274285-21.942857 48.274286-48.274285 48.274286z m0-76.068571c-14.628571 0-26.331429 11.702857-26.331429 26.331428s11.702857 26.331429 26.331429 26.331429 26.331429-11.702857 26.331428-26.331429c0-13.165714-11.702857-26.331429-26.331428-26.331428z" fill="#141515"></path><path d="M58.514286 599.771429h64.365714c10.24 0 19.017143 8.777143 19.017143 19.017142v10.24c0 10.24-8.777143 19.017143-19.017143 19.017143H58.514286c-10.24 0-19.017143-8.777143-19.017143-19.017143v-10.24c0-11.702857 8.777143-19.017143 19.017143-19.017142z" fill="#FFE638"></path><path d="M122.88 658.285714H57.051429c-16.091429 0-29.257143-13.165714-29.257143-29.257143v-11.702857c0-16.091429 13.165714-29.257143 29.257143-29.257143h64.365714c16.091429 0 29.257143 13.165714 29.257143 29.257143v11.702857c1.462857 16.091429-11.702857 29.257143-27.794286 29.257143zM58.514286 611.474286c-4.388571 0-8.777143 4.388571-8.777143 8.777143v10.24c0 4.388571 4.388571 8.777143 8.777143 8.777142h64.365714c4.388571 0 8.777143-4.388571 8.777143-8.777142v-11.702858c0-4.388571-4.388571-8.777143-8.777143-8.777142H58.514286v1.462857z" fill="#141515"></path><path d="M58.514286 526.628571h64.365714c10.24 0 19.017143 8.777143 19.017143 19.017143v10.24c0 10.24-8.777143 19.017143-19.017143 19.017143H58.514286c-10.24 0-19.017143-8.777143-19.017143-19.017143v-10.24c0-11.702857 8.777143-19.017143 19.017143-19.017143z" fill="#FFE638"></path><path d="M122.88 585.142857H57.051429c-16.091429 0-29.257143-13.165714-29.257143-29.257143v-11.702857c0-16.091429 13.165714-29.257143 29.257143-29.257143h64.365714c16.091429 0 29.257143 13.165714 29.257143 29.257143v11.702857c1.462857 16.091429-11.702857 29.257143-27.794286 29.257143zM58.514286 535.405714c-4.388571 0-8.777143 4.388571-8.777143 8.777143v11.702857c0 4.388571 4.388571 8.777143 8.777143 8.777143h64.365714c4.388571 0 8.777143-4.388571 8.777143-8.777143v-10.24c0-4.388571-4.388571-8.777143-8.777143-8.777143H58.514286z" fill="#141515"></path><path d="M980.114286 415.451429l-42.422857 210.651428H495.908571l-36.571428-210.651428z" fill="#ED9423"></path><path d="M937.691429 636.342857H495.908571c-4.388571 0-8.777143-4.388571-10.24-8.777143l-35.108571-209.188571c0-2.925714 0-5.851429 2.925714-8.777143 1.462857-2.925714 4.388571-4.388571 7.314286-4.388571H980.114286c2.925714 0 5.851429 1.462857 7.314285 4.388571 1.462857 2.925714 2.925714 5.851429 1.462858 8.777143l-42.422858 209.188571c0 2.925714-4.388571 8.777143-8.777142 8.777143zM504.685714 614.4h424.228572l38.034285-188.708571H472.502857L504.685714 614.4z" fill="#141515"></path><path d="M689.005714 415.451429h127.268572l35.108571 206.262857h-127.268571z" fill="#F8C213"></path><path d="M851.382857 633.417143h-127.268571c-4.388571 0-8.777143-4.388571-10.24-8.777143l-35.108572-206.262857c0-2.925714 0-5.851429 2.925715-8.777143 1.462857-2.925714 4.388571-4.388571 7.314285-4.388571h127.268572c4.388571 0 8.777143 4.388571 10.24 8.777142l35.108571 203.337143c0 1.462857 1.462857 2.925714 1.462857 4.388572-1.462857 5.851429-5.851429 11.702857-11.702857 11.702857z m-118.491428-21.942857h105.325714L806.034286 424.228571h-105.325715l32.182858 187.245715z" fill="#141515"></path><path d="M425.691429 213.577143h127.268571l68.754286 408.137143h-127.268572z" fill="#F8C213"></path><path d="M621.714286 633.417143h-127.268572c-4.388571 0-8.777143-4.388571-10.24-8.777143l-68.754285-408.137143c0-2.925714 0-5.851429 2.925714-8.777143 1.462857-2.925714 4.388571-4.388571 7.314286-4.388571h127.268571c4.388571 0 8.777143 4.388571 10.24 8.777143l68.754286 405.211428c0 1.462857 1.462857 2.925714 1.462857 4.388572-1.462857 5.851429-5.851429 11.702857-11.702857 11.702857z m-118.491429-21.942857h105.325714l-65.828571-386.194286h-105.325714l65.828571 386.194286z" fill="#141515"></path><path d="M311.588571 213.577143h239.908572l8.777143 42.422857H321.828571z" fill="#ED9423"></path><path d="M561.737143 267.702857c-1.462857 0-1.462857 0 0 0H320.365714c-4.388571 0-8.777143-2.925714-10.24-8.777143l-8.777143-42.422857c0-2.925714 0-5.851429 1.462858-8.777143s4.388571-4.388571 8.777142-4.388571h239.908572c4.388571 0 8.777143 2.925714 10.24 8.777143l8.777143 39.497143c0 1.462857 1.462857 2.925714 1.462857 4.388571 0 5.851429-5.851429 11.702857-10.24 11.702857z m-232.594286-21.942857h217.965714l-4.388571-20.48H324.754286l4.388571 20.48z" fill="#141515"></path></g></svg>
