<svg viewBox="0 0 64 64" id="Layer_1" version="1.1" xml:space="preserve" xmlns="http://www.w3.org/2000/svg" xmlns:xlink="http://www.w3.org/1999/xlink" fill="#000000"><g id="SVGRepo_bgCarrier" stroke-width="0"></g><g id="SVGRepo_tracerCarrier" stroke-linecap="round" stroke-linejoin="round"></g><g id="SVGRepo_iconCarrier"> <style type="text/css"> .st0{fill:#B4E6DD;} .st1{fill:#80D4C4;} .st2{fill:#D2F0EA;} .st3{fill:#FFFFFF;} .st4{fill:#FBD872;} .st5{fill:#DB7767;} .st6{fill:#F38E7A;} .st7{fill:#F6AF62;} .st8{fill:#32A48E;} .st9{fill:#A38FD8;} .st10{fill:#7C64BD;} .st11{fill:#EAA157;} .st12{fill:#9681CF;} .st13{fill:#F9C46A;} .st14{fill:#CE6B61;} </style> <g> <polygon class="st7" points="56,27.65 56,21.8 51.3,21.8 51.3,16.95 12.7,16.95 12.7,21.8 8,21.8 8,27.65 12.7,27.65 12.7,31.5 8,31.5 8,37.35 12.7,37.35 12.7,41.19 8,41.19 8,47.05 56,47.05 56,41.19 51.3,41.19 51.3,37.35 56,37.35 56,31.5 51.3,31.5 51.3,27.65 "></polygon> <g> <polygon class="st13" points="41.65,36.6 45.85,36.6 45.85,32.25 36.95,32.25 36.95,36.6 41.15,36.6 "></polygon> <rect class="st4" height="4.35" width="8.9" x="46.35" y="41.95"></rect> <polygon class="st4" points="55.25,26.9 55.25,22.55 46.35,22.55 46.35,26.9 51.05,26.9 "></polygon> <rect class="st4" height="4.35" width="8.9" x="41.65" y="17.7"></rect> <polygon class="st4" points="32.25,36.6 36.45,36.6 36.45,32.25 27.55,32.25 27.55,36.6 31.75,36.6 "></polygon> <polygon class="st13" points="36.95,26.9 41.15,26.9 41.65,26.9 45.85,26.9 45.85,22.55 36.95,22.55 "></polygon> <polygon class="st4" points="8.75,36.6 12.95,36.6 17.65,36.6 17.65,32.25 8.75,32.25 "></polygon> <polygon class="st4" points="22.35,27.4 18.15,27.4 17.65,27.4 13.45,27.4 13.45,31.75 22.35,31.75 "></polygon> <polygon class="st13" points="31.75,27.4 27.55,27.4 27.05,27.4 22.85,27.4 22.85,31.75 31.75,31.75 "></polygon> <polygon class="st13" points="45.85,27.4 41.65,27.4 41.65,31.75 50.55,31.75 50.55,27.4 46.35,27.4 "></polygon> <polygon class="st4" points="46.35,36.6 51.05,36.6 55.25,36.6 55.25,32.25 46.35,32.25 "></polygon> <rect class="st13" height="4.35" width="8.9" x="32.25" y="17.7"></rect> <polygon class="st13" points="22.85,36.6 27.05,36.6 27.05,32.25 18.15,32.25 18.15,36.6 22.35,36.6 "></polygon> <polygon class="st4" points="41.15,27.4 36.95,27.4 36.45,27.4 32.25,27.4 32.25,31.75 41.15,31.75 "></polygon> <polygon class="st13" points="41.15,37.1 36.95,37.1 36.45,37.1 32.25,37.1 32.25,41.45 41.15,41.45 "></polygon> <rect class="st4" height="4.35" width="8.9" x="27.55" y="41.95"></rect> <polygon class="st4" points="31.75,37.1 27.55,37.1 27.05,37.1 22.85,37.1 22.85,41.45 31.75,41.45 "></polygon> <rect class="st13" height="4.35" width="8.9" x="36.95" y="41.95"></rect> <rect class="st13" height="4.35" width="8.9" x="18.15" y="41.95"></rect> <polygon class="st4" points="50.55,37.1 46.35,37.1 45.85,37.1 41.65,37.1 41.65,41.45 50.55,41.45 "></polygon> <polygon class="st4" points="27.55,26.9 31.75,26.9 32.25,26.9 36.45,26.9 36.45,22.55 27.55,22.55 "></polygon> <polygon class="st13" points="22.35,37.1 18.15,37.1 17.65,37.1 13.45,37.1 13.45,41.45 22.35,41.45 "></polygon> <polygon class="st13" points="18.15,26.9 22.35,26.9 22.85,26.9 27.05,26.9 27.05,22.55 18.15,22.55 "></polygon> <rect class="st4" height="4.35" width="8.9" x="22.85" y="17.7"></rect> <rect class="st13" height="4.35" width="8.9" x="13.45" y="17.7"></rect> <rect class="st4" height="4.35" width="8.9" x="8.75" y="41.95"></rect> <polygon class="st4" points="8.75,26.9 12.95,26.9 17.65,26.9 17.65,22.55 8.75,22.55 "></polygon> </g> </g> </g></svg>
