<svg height="200px" width="200px" version="1.1" id="Layer_1" xmlns="http://www.w3.org/2000/svg" xmlns:xlink="http://www.w3.org/1999/xlink" viewBox="0 0 512 512" xml:space="preserve" fill="#000000"><g id="SVGRepo_bgCarrier" stroke-width="0"></g><g id="SVGRepo_tracerCarrier" stroke-linecap="round" stroke-linejoin="round"></g><g id="SVGRepo_iconCarrier"> <path style="fill:#5C5F66;" d="M256,166.957c-9.223,0-16.696-7.473-16.696-16.696V83.478c0-9.223,7.473-16.696,16.696-16.696 s16.696,7.473,16.696,16.696v66.783C272.696,159.484,265.223,166.957,256,166.957z"></path> <path style="fill:#53565C;" d="M272.696,150.261V83.478c0-9.223-7.473-16.696-16.696-16.696v100.174 C265.223,166.957,272.696,159.484,272.696,150.261z"></path> <path style="fill:#FFE7A6;" d="M456.348,400.696H55.652c-9.223,0-16.696-7.473-16.696-16.696V217.043 c0-9.223,7.473-16.696,16.696-16.696h400.696c9.223,0,16.696,7.473,16.696,16.696V384 C473.043,393.223,465.57,400.696,456.348,400.696z"></path> <path style="fill:#FFD392;" d="M456.348,200.348H256v200.348h200.348c9.223,0,16.696-7.473,16.696-16.696V217.043 C473.043,207.821,465.57,200.348,456.348,200.348z"></path> <path style="fill:#5AF1FF;" d="M256,100.174c-27.619,0-50.087-22.468-50.087-50.087S228.381,0,256,0s50.087,22.468,50.087,50.087 S283.619,100.174,256,100.174z"></path> <path style="fill:#51DAE6;" d="M306.087,50.087C306.087,22.468,283.619,0,256,0v100.174 C283.619,100.174,306.087,77.706,306.087,50.087z"></path> <path style="fill:#57921c;" d="M500.87,312.988c-6.79,6.122-17.365,5.565-23.597-1.336c-6.678-7.235-13.802-10.908-20.925-10.908 s-14.247,3.673-21.037,11.02c-26.936,29.83-65.67,28.828-91.603-0.111c-6.678-7.235-13.802-10.908-20.925-10.908 s-14.247,3.673-21.037,11.02c-13.358,14.803-29.607,22.038-45.746,22.038c-16.362,0-32.722-7.569-45.857-22.15 c-6.678-7.235-13.802-10.908-20.925-10.908s-14.247,3.673-21.037,11.02c-26.936,29.83-65.67,28.828-91.603-0.111 c-13.358-14.581-28.493-14.581-41.962,0.111c-6.232,6.678-16.696,7.235-23.485,1.113c-6.901-6.233-7.456-16.696-1.336-23.485 c26.713-29.718,65.67-29.162,91.715,0c6.678,7.235,13.802,10.908,20.925,10.908c7.123,0,14.247-3.673,21.037-11.019 c26.936-29.83,65.67-28.828,91.603,0.111c6.678,7.235,13.802,10.908,20.925,10.908s14.247-3.673,21.037-11.019 c26.936-29.83,65.67-28.828,91.603,0.111c6.678,7.235,13.802,10.908,20.925,10.908s14.247-3.673,21.037-11.019 c27.492-30.609,66.449-28.049,91.603,0.111C508.326,296.292,507.77,306.755,500.87,312.988z"></path> <path style="fill:#5C5F66;" d="M256,512c-9.223,0-16.696-7.473-16.696-16.696v-44.522c0-9.223,7.473-16.696,16.696-16.696 s16.696,7.473,16.696,16.696v44.522C272.696,504.527,265.223,512,256,512z"></path> <path style="fill:#53565C;" d="M272.696,495.304v-44.522c0-9.223-7.473-16.696-16.696-16.696V512 C265.223,512,272.696,504.527,272.696,495.304z"></path> <path style="fill:#6EB825;" d="M500.87,312.988c-6.79,6.122-17.365,5.565-23.597-1.336c-6.678-7.235-13.802-10.908-20.925-10.908 s-14.247,3.673-21.037,11.02c-26.936,29.83-65.67,28.828-91.603-0.111c-6.678-7.235-13.802-10.908-20.925-10.908 s-14.247,3.673-21.037,11.02c-13.358,14.803-29.607,22.038-45.746,22.038v-33.503c7.123,0,14.247-3.673,21.037-11.019 c26.936-29.83,65.67-28.828,91.603,0.111c6.678,7.235,13.802,10.908,20.925,10.908s14.247-3.673,21.037-11.019 c27.492-30.609,66.449-28.049,91.603,0.111C508.326,296.292,507.77,306.755,500.87,312.988z"></path> <path style="fill:#F29A36;" d="M489.739,233.739H22.261c-9.223,0-16.696-7.473-16.696-16.696v-66.783 c0-9.223,7.473-16.696,16.696-16.696h467.478c9.217,0,16.696,7.473,16.696,16.696v66.783 C506.435,226.266,498.956,233.739,489.739,233.739z"></path> <path style="fill:#E7812E;" d="M489.739,133.565H256v100.174h233.739c9.217,0,16.696-7.473,16.696-16.696v-66.783 C506.435,141.038,498.956,133.565,489.739,133.565z"></path> <path style="fill:#F29A36;" d="M489.739,467.478H22.261c-9.223,0-16.696-7.473-16.696-16.696V384 c0-9.223,7.473-16.696,16.696-16.696h467.478c9.217,0,16.696,7.473,16.696,16.696v66.783 C506.435,460.005,498.956,467.478,489.739,467.478z"></path> <path style="fill:#E7812E;" d="M489.739,367.304H256v100.174h233.739c9.217,0,16.696-7.473,16.696-16.696V384 C506.435,374.777,498.956,367.304,489.739,367.304z"></path> </g></svg>
