<svg height="89px" width="89px" version="1.1" id="Layer_1" xmlns="http://www.w3.org/2000/svg" xmlns:xlink="http://www.w3.org/1999/xlink" viewBox="0 0 512.001 512.001" xml:space="preserve" fill="#000000"><g id="SVGRepo_bgCarrier" stroke-width="0"></g><g id="SVGRepo_tracerCarrier" stroke-linecap="round" stroke-linejoin="round"></g><g id="SVGRepo_iconCarrier"> <path style="fill:#f0f4f2;" d="M465.449,230.425c-23.276,0-23.276,22.539-46.553,22.539c-23.273,0-23.273-22.539-46.546-22.539 c-23.274,0-23.274,22.539-46.547,22.539c-23.273,0-23.273-22.539-46.545-22.539s-23.272,22.539-46.545,22.539 c-23.269,0-23.269-22.539-46.539-22.539c-23.272,0-23.272,22.539-46.544,22.539c-23.273,0-23.273-22.539-46.545-22.539 s-23.272,22.539-46.545,22.539c-23.271,0-23.271-22.539-46.542-22.539v39.402v15.4v36.44h512v-13.901v-37.939v-16.863 C488.725,252.964,488.725,230.425,465.449,230.425z"></path> <path style="fill:#495E77;" d="M325.808,307.771c-23.272,0-69.827,13.897-93.098,13.897c-23.26,0-69.804-13.897-93.076-13.897 c0,0,16.07-135.799,189.623-158.338C329.256,149.433,300.937,233.944,325.808,307.771z"></path> <path style="fill:#62788E;" d="M329.256,149.433c-4.452,0.578-8.775,1.249-13.021,1.972c-3.953,12.857-34.559,78.712-13.704,145.092 c3.57,2.008,17.634,11.275,23.276,11.275C300.937,233.944,329.256,149.433,329.256,149.433z"></path> <path style="fill:#d9ede3;" d="M512.001,362.568c-23.276,0-23.276-22.539-46.553-22.539c-23.276,0-23.276,22.539-46.553,22.539 c-23.273,0-23.273-22.539-46.546-22.539c-23.274,0-23.274,22.539-46.547,22.539c-23.273,0-23.273-22.539-46.545-22.539 s-23.272,22.539-46.545,22.539c-23.269,0-23.269-22.539-46.539-22.539c-23.272,0-23.272,22.539-46.544,22.539 c-23.273,0-23.273-22.539-46.545-22.539s-23.272,22.539-46.545,22.539c-23.271,0-23.271-22.539-46.542-22.539v-54.802 c23.271,0,23.271,22.539,46.542,22.539s23.272-22.539,46.545-22.539s23.273,22.539,46.545,22.539s23.272-22.539,46.544-22.539 c23.27,0,23.27,22.539,46.539,22.539c23.272,0,23.272-22.539,46.545-22.539s23.273,22.539,46.545,22.539 c23.274,0,23.274-22.539,46.547-22.539c23.273,0,23.273,22.539,46.546,22.539c23.276,0,23.276-22.539,46.553-22.539 c23.276,0,23.276,22.539,46.552,22.539L512.001,362.568L512.001,362.568z"></path> </g></svg>
